<svg id="Capa_1" enable-background="new 0 0 512 512" height="512" viewBox="0 0 512 512" width="512" xmlns="http://www.w3.org/2000/svg"><g><path d="m180.995 151c0-8.284-6.716-15-15-15h-16v-60c0-8.284-6.716-15-15-15s-15 6.716-15 15v60h-14c-8.284 0-15 6.716-15 15v16h89.998v-16z"/><path d="m30.999 197h149.996v74h-149.996z"/><path d="m496.987 421h-18.694c-6.413-23.873-4.328-49.019 6.116-71.732l26.207-57.002c4.551-9.899-2.669-21.266-13.629-21.266h-75.998c-5.682 0-10.876 3.21-13.416 8.292l-10.854 21.708h-381.719c-8.284 0-15 6.716-15 15v30.316c0 24.639 20.044 44.684 44.682 44.684h1.316v30h-30.998c-8.284 0-15 6.716-15 15s6.716 15 15 15h481.988c8.284 0 15-6.716 15-15s-6.717-15-15.001-15zm-80.998-84c8.284 0 15 6.716 15 15s-6.716 15-15 15-15-6.716-15-15 6.716-15 15-15z"/><path d="m300.992 149h-39.999c-5.523 0-10 4.477-10 10v38h49.999z"/><path d="m380.99 159c0-5.523-4.477-10-10-10h-39.999v48h49.999z"/><path d="m210.995 227h49.999v44h-49.999z"/><path d="m290.992 227h49.999v44h-49.999z"/><path d="m370.99 271h7.19c1.061-1.241 10.569-30 42.809-30v-14h-49.999z"/></g></svg>