<svg xmlns="http://www.w3.org/2000/svg" version="1.1" xmlns:xlink="http://www.w3.org/1999/xlink" xmlns:svgjs="http://svgjs.com/svgjs" width="512" height="512" x="0" y="0" viewBox="0 0 496 496" style="enable-background:new 0 0 512 512" xml:space="preserve" class=""><g><path fill="#cbd9e0" d="M496 277.79c0 45.21-36.79 82-82 82H128c-57.35 0-104-46.65-104-104 0-49.109 34.189-90.772 80.78-101.4C107.48 95.38 156.33 48.21 216 48.21c44.361 0 82.219 25.732 100.28 62.98C373.11 95.117 430 137.642 430 197.36c37.58 7.46 66 40.69 66 80.43z" data-original="#cecccc"></path><path fill="#9fcddc" d="M54.129 342.033c-9.898-48.692 41.136-86.247 84.467-64.043 9.517-31.366 38.688-54.2 73.203-54.2 44.769 0 80.162 38.289 76.176 83.208C324.36 309.838 353 340.22 353 377.285c0 38.969-31.639 70.505-70.6 70.505H52.95C23.72 447.79 0 424.128 0 394.911c0-27.805 21.881-52.878 54.129-52.878z" data-original="#e2e0e0" class=""></path></g></svg>